<?xml version="1.0" encoding="utf-8" standalone="no"?>
<!DOCTYPE svg PUBLIC "-//W3C//DTD SVG 1.1//EN"
  "http://www.w3.org/Graphics/SVG/1.1/DTD/svg11.dtd">
<svg xmlns:xlink="http://www.w3.org/1999/xlink" width="299.334007pt" height="145.759656pt" viewBox="0 0 299.334007 145.759656" xmlns="http://www.w3.org/2000/svg" version="1.1">
 <metadata>
  <rdf:RDF xmlns:dc="http://purl.org/dc/elements/1.1/" xmlns:cc="http://creativecommons.org/ns#" xmlns:rdf="http://www.w3.org/1999/02/22-rdf-syntax-ns#">
   <cc:Work>
    <dc:type rdf:resource="http://purl.org/dc/dcmitype/StillImage"/>
    <dc:date>2026-06-29T18:03:02.760787</dc:date>
    <dc:format>image/svg+xml</dc:format>
    <dc:creator>
     <cc:Agent>
      <dc:title>Matplotlib v3.10.8, https://matplotlib.org/</dc:title>
     </cc:Agent>
    </dc:creator>
   </cc:Work>
  </rdf:RDF>
 </metadata>
 <defs>
  <style type="text/css">*{stroke-linejoin: round; stroke-linecap: butt}</style>
 </defs>
 <g id="figure_1">
  <g id="patch_1">
   <path d="M 0 145.759656 
L 299.334007 145.759656 
L 299.334007 0 
L 0 0 
z
" style="fill: #ffffff"/>
  </g>
  <g id="axes_1">
   <g id="patch_2">
    <path d="M 39.092704 112.241339 
L 250.539556 112.241339 
L 250.539556 7.2 
L 39.092704 7.2 
z
" style="fill: #ffffff"/>
   </g>
   <g id="matplotlib.axis_1">
    <g id="xtick_1">
     <g id="line2d_1">
      <defs>
       <path id="m25e17a43f4" d="M 0 0 
L 0 -3.5 
" style="stroke: #000000; stroke-width: 0.8"/>
      </defs>
      <g>
       <use xlink:href="#m25e17a43f4" x="250.539556" y="112.241339" style="stroke: #000000; stroke-width: 0.8"/>
      </g>
     </g>
     <g id="line2d_2">
      <defs>
       <path id="mcc1116ad46" d="M 0 0 
L 0 3.5 
" style="stroke: #000000; stroke-width: 0.8"/>
      </defs>
      <g>
       <use xlink:href="#mcc1116ad46" x="250.539556" y="7.2" style="stroke: #000000; stroke-width: 0.8"/>
      </g>
     </g>
     <g id="text_1">
      <!-- $\mathdefault{10^{-1}}$ -->
      <g transform="translate(240.459269 122.659838) scale(0.1 -0.1)">
       <defs>
        <path id="CMR17-31" d="M 1702 4083 
C 1702 4217 1696 4224 1606 4224 
C 1357 3927 979 3833 621 3820 
C 602 3820 570 3820 563 3808 
C 557 3795 557 3782 557 3648 
C 755 3648 1088 3686 1344 3839 
L 1344 467 
C 1344 243 1331 166 781 166 
L 589 166 
L 589 0 
C 896 6 1216 12 1523 12 
C 1830 12 2150 6 2458 0 
L 2458 166 
L 2266 166 
C 1715 166 1702 236 1702 467 
L 1702 4083 
z
" transform="scale(0.015625)"/>
        <path id="CMR17-30" d="M 2688 2038 
C 2688 2430 2682 3099 2413 3613 
C 2176 4063 1798 4224 1466 4224 
C 1158 4224 768 4082 525 3620 
C 269 3137 243 2539 243 2038 
C 243 1671 250 1112 448 623 
C 723 -39 1216 -128 1466 -128 
C 1760 -128 2208 -7 2470 604 
C 2662 1048 2688 1568 2688 2038 
z
M 1466 -26 
C 1056 -26 813 328 723 816 
C 653 1196 653 1749 653 2109 
C 653 2604 653 3015 736 3407 
C 858 3954 1216 4121 1466 4121 
C 1728 4121 2067 3947 2189 3420 
C 2272 3054 2278 2623 2278 2109 
C 2278 1691 2278 1176 2202 797 
C 2067 96 1690 -26 1466 -26 
z
" transform="scale(0.015625)"/>
        <path id="CMSY10-0" d="M 4218 1472 
C 4326 1472 4442 1472 4442 1600 
C 4442 1728 4326 1728 4218 1728 
L 755 1728 
C 646 1728 531 1728 531 1600 
C 531 1472 646 1472 755 1472 
L 4218 1472 
z
" transform="scale(0.015625)"/>
       </defs>
       <use xlink:href="#CMR17-31" transform="scale(0.996264)"/>
       <use xlink:href="#CMR17-30" transform="translate(45.690477 0) scale(0.996264)"/>
       <use xlink:href="#CMSY10-0" transform="translate(91.380954 36.153639) scale(0.697382)"/>
       <use xlink:href="#CMR17-31" transform="translate(145.621947 36.153639) scale(0.697382)"/>
      </g>
     </g>
    </g>
    <g id="xtick_2">
     <g id="line2d_3">
      <g>
       <use xlink:href="#m25e17a43f4" x="201.597723" y="112.241339" style="stroke: #000000; stroke-width: 0.8"/>
      </g>
     </g>
     <g id="line2d_4">
      <g>
       <use xlink:href="#mcc1116ad46" x="201.597723" y="7.2" style="stroke: #000000; stroke-width: 0.8"/>
      </g>
     </g>
     <g id="text_2">
      <!-- $\mathdefault{10^{1}}$ -->
      <g transform="translate(194.630769 122.659838) scale(0.1 -0.1)">
       <use xlink:href="#CMR17-31" transform="scale(0.996264)"/>
       <use xlink:href="#CMR17-30" transform="translate(45.690477 0) scale(0.996264)"/>
       <use xlink:href="#CMR17-31" transform="translate(91.380954 36.153639) scale(0.697382)"/>
      </g>
     </g>
    </g>
    <g id="xtick_3">
     <g id="line2d_5">
      <g>
       <use xlink:href="#m25e17a43f4" x="152.655891" y="112.241339" style="stroke: #000000; stroke-width: 0.8"/>
      </g>
     </g>
     <g id="line2d_6">
      <g>
       <use xlink:href="#mcc1116ad46" x="152.655891" y="7.2" style="stroke: #000000; stroke-width: 0.8"/>
      </g>
     </g>
     <g id="text_3">
      <!-- $\mathdefault{10^{3}}$ -->
      <g transform="translate(145.688937 122.659838) scale(0.1 -0.1)">
       <defs>
        <path id="CMR17-33" d="M 1414 2176 
C 1984 2176 2234 1673 2234 1094 
C 2234 322 1824 25 1453 25 
C 1114 25 563 193 390 691 
C 422 678 454 678 486 678 
C 640 678 755 780 755 947 
C 755 1132 614 1216 486 1216 
C 378 1216 211 1164 211 927 
C 211 335 787 -128 1466 -128 
C 2176 -128 2720 432 2720 1087 
C 2720 1718 2208 2176 1600 2246 
C 2086 2347 2554 2776 2554 3353 
C 2554 3856 2048 4224 1472 4224 
C 890 4224 378 3862 378 3347 
C 378 3123 544 3084 627 3084 
C 762 3084 877 3167 877 3334 
C 877 3500 762 3584 627 3584 
C 602 3584 570 3584 544 3571 
C 730 3999 1235 4076 1459 4076 
C 1683 4076 2106 3966 2106 3347 
C 2106 3167 2080 2851 1862 2574 
C 1670 2329 1453 2316 1242 2297 
C 1210 2297 1062 2284 1037 2284 
C 992 2278 966 2272 966 2227 
C 966 2182 973 2176 1101 2176 
L 1414 2176 
z
" transform="scale(0.015625)"/>
       </defs>
       <use xlink:href="#CMR17-31" transform="scale(0.996264)"/>
       <use xlink:href="#CMR17-30" transform="translate(45.690477 0) scale(0.996264)"/>
       <use xlink:href="#CMR17-33" transform="translate(91.380954 36.153639) scale(0.697382)"/>
      </g>
     </g>
    </g>
    <g id="xtick_4">
     <g id="line2d_7">
      <g>
       <use xlink:href="#m25e17a43f4" x="103.714058" y="112.241339" style="stroke: #000000; stroke-width: 0.8"/>
      </g>
     </g>
     <g id="line2d_8">
      <g>
       <use xlink:href="#mcc1116ad46" x="103.714058" y="7.2" style="stroke: #000000; stroke-width: 0.8"/>
      </g>
     </g>
     <g id="text_4">
      <!-- $\mathdefault{10^{5}}$ -->
      <g transform="translate(96.747104 122.659838) scale(0.1 -0.1)">
       <defs>
        <path id="CMR17-35" d="M 730 3750 
C 794 3724 1056 3641 1325 3641 
C 1920 3641 2246 3961 2432 4140 
C 2432 4191 2432 4224 2394 4224 
C 2387 4224 2374 4224 2323 4198 
C 2099 4102 1837 4032 1517 4032 
C 1325 4032 1037 4055 723 4191 
C 653 4224 640 4224 634 4224 
C 602 4224 595 4217 595 4090 
L 595 2231 
C 595 2113 595 2080 659 2080 
C 691 2080 704 2093 736 2139 
C 941 2435 1222 2560 1542 2560 
C 1766 2560 2246 2415 2246 1293 
C 2246 1087 2246 716 2054 422 
C 1894 159 1645 25 1370 25 
C 947 25 518 319 403 812 
C 429 806 480 793 506 793 
C 589 793 749 838 749 1036 
C 749 1209 627 1280 506 1280 
C 358 1280 262 1190 262 1011 
C 262 454 704 -128 1382 -128 
C 2042 -128 2669 441 2669 1267 
C 2669 2054 2170 2662 1549 2662 
C 1222 2662 947 2540 730 2304 
L 730 3750 
z
" transform="scale(0.015625)"/>
       </defs>
       <use xlink:href="#CMR17-31" transform="scale(0.996264)"/>
       <use xlink:href="#CMR17-30" transform="translate(45.690477 0) scale(0.996264)"/>
       <use xlink:href="#CMR17-35" transform="translate(91.380954 36.153639) scale(0.697382)"/>
      </g>
     </g>
    </g>
    <g id="xtick_5">
     <g id="line2d_9">
      <g>
       <use xlink:href="#m25e17a43f4" x="54.772226" y="112.241339" style="stroke: #000000; stroke-width: 0.8"/>
      </g>
     </g>
     <g id="line2d_10">
      <g>
       <use xlink:href="#mcc1116ad46" x="54.772226" y="7.2" style="stroke: #000000; stroke-width: 0.8"/>
      </g>
     </g>
     <g id="text_5">
      <!-- $\mathdefault{10^{7}}$ -->
      <g transform="translate(47.805272 122.659838) scale(0.1 -0.1)">
       <defs>
        <path id="CMR17-37" d="M 2886 3955 
L 2886 4096 
L 1382 4096 
C 634 4096 621 4166 595 4288 
L 480 4288 
L 294 3104 
L 410 3104 
C 429 3226 474 3552 550 3673 
C 589 3724 1062 3724 1171 3724 
L 2579 3724 
L 1869 2670 
C 1395 1961 1069 1003 1069 166 
C 1069 89 1069 -128 1299 -128 
C 1530 -128 1530 89 1530 172 
L 1530 466 
C 1530 1514 1709 2204 2003 2644 
L 2886 3955 
z
" transform="scale(0.015625)"/>
       </defs>
       <use xlink:href="#CMR17-31" transform="scale(0.996264)"/>
       <use xlink:href="#CMR17-30" transform="translate(45.690477 0) scale(0.996264)"/>
       <use xlink:href="#CMR17-37" transform="translate(91.380954 36.153639) scale(0.697382)"/>
      </g>
     </g>
    </g>
    <g id="text_6">
     <!-- Time Before First Nova [yr] -->
     <g transform="translate(84.140769 136.068996) scale(0.1 -0.1)">
      <defs>
       <path id="CMR17-54" d="M 3981 4332 
L 288 4332 
L 179 2924 
L 294 2924 
C 378 3981 467 4166 1453 4166 
C 1568 4166 1754 4166 1805 4159 
C 1926 4140 1926 4064 1926 3917 
L 1926 465 
C 1926 236 1907 166 1376 166 
L 1197 166 
L 1197 0 
C 1504 6 1824 12 2138 12 
C 2451 12 2771 6 3078 0 
L 3078 166 
L 2899 166 
C 2368 166 2349 236 2349 465 
L 2349 3917 
C 2349 4057 2349 4134 2464 4159 
C 2515 4166 2701 4166 2816 4166 
C 3795 4166 3891 3981 3974 2924 
L 4090 2924 
L 3981 4332 
z
" transform="scale(0.015625)"/>
       <path id="CMR17-69" d="M 992 3961 
C 992 4102 877 4224 730 4224 
C 589 4224 467 4108 467 3961 
C 467 3820 582 3699 730 3699 
C 870 3699 992 3814 992 3961 
z
M 243 2745 
L 243 2579 
C 602 2579 653 2540 653 2231 
L 653 443 
C 653 198 627 166 218 166 
L 218 0 
C 371 12 646 12 806 12 
C 960 12 1222 12 1370 0 
L 1370 166 
C 992 166 979 205 979 436 
L 979 2816 
L 243 2745 
z
" transform="scale(0.015625)"/>
       <path id="CMR17-6d" d="M 4326 1954 
C 4326 2276 4269 2816 3507 2816 
C 3072 2816 2771 2520 2656 2173 
L 2650 2173 
C 2573 2700 2195 2816 1837 2816 
C 1331 2816 1069 2424 973 2166 
L 966 2166 
L 966 2816 
L 211 2745 
L 211 2578 
C 589 2578 646 2540 646 2231 
L 646 443 
C 646 198 621 166 211 166 
L 211 0 
C 365 12 646 12 813 12 
C 979 12 1267 12 1421 0 
L 1421 166 
C 1011 166 986 192 986 443 
L 986 1678 
C 986 2269 1344 2713 1792 2713 
C 2266 2713 2317 2289 2317 1980 
L 2317 443 
C 2317 198 2291 166 1882 166 
L 1882 0 
C 2035 12 2317 12 2483 12 
C 2650 12 2938 12 3091 0 
L 3091 166 
C 2682 166 2656 192 2656 443 
L 2656 1678 
C 2656 2269 3014 2713 3462 2713 
C 3936 2713 3987 2289 3987 1980 
L 3987 443 
C 3987 198 3962 166 3552 166 
L 3552 0 
C 3706 12 3987 12 4154 12 
C 4320 12 4608 12 4762 0 
L 4762 166 
C 4352 166 4326 192 4326 443 
L 4326 1954 
z
" transform="scale(0.015625)"/>
       <path id="CMR17-65" d="M 2438 1503 
C 2464 1529 2464 1542 2464 1606 
C 2464 2251 2118 2816 1389 2816 
C 710 2816 173 2175 173 1394 
C 173 554 781 -64 1459 -64 
C 2176 -64 2458 619 2458 755 
C 2458 800 2419 800 2406 800 
C 2362 800 2355 787 2330 709 
C 2189 270 1837 51 1504 51 
C 1229 51 954 206 781 490 
C 582 819 582 1200 582 1503 
L 2438 1503 
z
M 589 1600 
C 634 2511 1126 2713 1382 2713 
C 1818 2713 2112 2308 2118 1600 
L 589 1600 
z
" transform="scale(0.015625)"/>
       <path id="CMR17-42" d="M 333 4352 
L 333 4185 
C 774 4185 845 4185 845 3897 
L 845 451 
C 845 166 774 166 333 166 
L 333 0 
L 2534 0 
C 3354 0 3885 578 3885 1155 
C 3885 1726 3360 2214 2675 2259 
C 3290 2380 3718 2790 3718 3276 
C 3718 3808 3194 4352 2368 4352 
L 333 4352 
z
M 1248 2304 
L 1248 3936 
C 1248 4153 1261 4185 1517 4185 
L 2336 4185 
C 2970 4185 3251 3673 3251 3276 
C 3251 2790 2861 2304 2170 2304 
L 1248 2304 
z
M 1517 166 
C 1261 166 1248 198 1248 413 
L 1248 2201 
L 2432 2201 
C 3091 2201 3411 1624 3411 1161 
C 3411 698 3046 166 2349 166 
L 1517 166 
z
" transform="scale(0.015625)"/>
       <path id="CMR17-66" d="M 979 2585 
L 1709 2585 
L 1709 2752 
L 966 2752 
L 966 3539 
C 966 4076 1235 4377 1510 4377 
C 1594 4377 1690 4363 1754 4339 
C 1702 4326 1568 4281 1568 4121 
C 1568 3955 1696 3904 1786 3904 
C 1875 3904 2003 3955 2003 4121 
C 2003 4353 1773 4480 1517 4480 
C 1152 4480 653 4211 653 3526 
L 653 2752 
L 141 2752 
L 141 2585 
L 653 2585 
L 653 441 
C 653 198 627 166 218 166 
L 218 0 
C 371 12 666 12 832 12 
C 1018 12 1344 12 1517 0 
L 1517 166 
C 1056 166 979 166 979 454 
L 979 2585 
z
" transform="scale(0.015625)"/>
       <path id="CMR17-6f" d="M 2758 1356 
C 2758 2176 2163 2816 1466 2816 
C 768 2816 173 2176 173 1356 
C 173 550 768 -64 1466 -64 
C 2163 -64 2758 550 2758 1356 
z
M 1466 51 
C 1165 51 909 230 762 480 
C 602 768 582 1126 582 1408 
C 582 1676 595 2009 762 2297 
C 890 2508 1139 2713 1466 2713 
C 1754 2713 1997 2553 2150 2329 
C 2349 2028 2349 1606 2349 1408 
C 2349 1158 2336 774 2163 467 
C 1984 172 1709 51 1466 51 
z
" transform="scale(0.015625)"/>
       <path id="CMR17-72" d="M 960 1517 
C 960 2134 1222 2713 1702 2713 
C 1747 2713 1792 2707 1837 2687 
C 1837 2687 1696 2642 1696 2475 
C 1696 2321 1818 2257 1914 2257 
C 1990 2257 2131 2302 2131 2482 
C 2131 2687 1926 2816 1709 2816 
C 1222 2816 1011 2340 947 2115 
L 941 2115 
L 941 2816 
L 198 2745 
L 198 2578 
C 576 2578 634 2540 634 2231 
L 634 443 
C 634 198 608 166 198 166 
L 198 0 
C 352 12 646 12 813 12 
C 998 12 1325 12 1498 0 
L 1498 166 
C 1037 166 960 166 960 455 
L 960 1517 
z
" transform="scale(0.015625)"/>
       <path id="CMR17-46" d="M 3482 4339 
L 326 4339 
L 326 4172 
C 768 4172 838 4172 838 3883 
L 838 450 
C 838 166 768 166 326 166 
L 326 0 
C 512 12 870 12 1069 12 
C 1331 12 1638 12 1901 0 
L 1901 166 
L 1760 166 
C 1274 166 1261 229 1261 456 
L 1261 2073 
L 1837 2073 
C 2432 2073 2490 1865 2490 1334 
L 2605 1334 
L 2605 2991 
L 2490 2991 
C 2490 2451 2432 2240 1837 2240 
L 1261 2240 
L 1261 3922 
C 1261 4140 1274 4172 1530 4172 
L 2355 4172 
C 3322 4172 3430 3774 3520 2920 
L 3635 2920 
L 3482 4339 
z
" transform="scale(0.015625)"/>
       <path id="CMR17-73" d="M 1978 2688 
C 1978 2803 1971 2809 1933 2809 
C 1907 2809 1901 2803 1824 2707 
C 1805 2681 1747 2617 1728 2592 
C 1523 2809 1235 2816 1126 2816 
C 416 2816 160 2444 160 2073 
C 160 1497 813 1363 998 1324 
C 1402 1241 1542 1216 1677 1100 
C 1760 1024 1901 883 1901 652 
C 1901 384 1747 38 1158 38 
C 602 38 403 460 288 1024 
C 269 1113 269 1120 218 1120 
C 166 1120 160 1113 160 985 
L 160 64 
C 160 -52 166 -58 205 -58 
C 237 -58 243 -52 275 0 
C 314 57 410 211 448 275 
C 576 102 800 -64 1158 -64 
C 1792 -64 2131 281 2131 780 
C 2131 1107 1958 1280 1875 1356 
C 1683 1555 1459 1600 1190 1651 
C 838 1728 390 1817 390 2208 
C 390 2374 480 2726 1126 2726 
C 1811 2726 1850 2086 1862 1881 
C 1869 1849 1901 1843 1920 1843 
C 1978 1843 1978 1862 1978 1971 
L 1978 2688 
z
" transform="scale(0.015625)"/>
       <path id="CMR17-74" d="M 966 2585 
L 1862 2585 
L 1862 2752 
L 966 2752 
L 966 3968 
L 851 3968 
C 838 3292 614 2700 70 2687 
L 70 2585 
L 627 2585 
L 627 778 
C 627 655 627 -64 1370 -64 
C 1747 -64 1965 308 1965 784 
L 1965 1151 
L 1850 1151 
L 1850 790 
C 1850 347 1677 51 1408 51 
C 1222 51 966 179 966 765 
L 966 2585 
z
" transform="scale(0.015625)"/>
       <path id="CMR17-4e" d="M 1312 4275 
C 1267 4345 1261 4352 1139 4352 
L 326 4352 
L 326 4185 
L 448 4185 
C 704 4185 819 4153 838 4147 
L 838 624 
C 838 465 838 166 326 166 
L 326 0 
C 474 12 742 12 902 12 
C 1062 12 1331 12 1478 0 
L 1478 166 
C 966 166 966 465 966 624 
L 966 4057 
C 1011 4019 1011 4007 1056 3943 
L 3430 76 
C 3475 0 3494 0 3526 0 
C 3590 0 3590 19 3590 140 
L 3590 3726 
C 3590 3885 3590 4185 4102 4185 
L 4102 4352 
C 3955 4339 3686 4339 3526 4339 
C 3366 4339 3098 4339 2950 4352 
L 2950 4185 
C 3462 4185 3462 3885 3462 3726 
L 3462 777 
L 1312 4275 
z
" transform="scale(0.015625)"/>
       <path id="CMR17-76" d="M 2502 2173 
C 2560 2315 2662 2572 3034 2585 
L 3034 2752 
C 2912 2745 2752 2739 2630 2739 
C 2496 2739 2285 2739 2157 2752 
L 2157 2585 
C 2317 2572 2406 2495 2406 2328 
C 2406 2270 2406 2257 2368 2167 
L 1664 379 
L 902 2308 
C 864 2392 864 2405 864 2431 
C 864 2585 1075 2585 1171 2585 
L 1171 2752 
C 1018 2739 736 2739 576 2739 
C 403 2739 205 2739 64 2752 
L 64 2585 
C 307 2585 442 2585 518 2386 
L 1446 44 
C 1485 -52 1491 -64 1549 -64 
C 1606 -64 1613 -52 1651 44 
L 2502 2173 
z
" transform="scale(0.015625)"/>
       <path id="CMR17-61" d="M 2304 1656 
C 2304 2048 2304 2275 2035 2534 
C 1798 2751 1523 2816 1306 2816 
C 800 2816 435 2408 435 1977 
C 435 1740 627 1728 666 1728 
C 749 1728 896 1779 896 1958 
C 896 2118 774 2188 666 2188 
C 640 2188 608 2182 589 2176 
C 723 2594 1069 2713 1293 2713 
C 1613 2713 1965 2421 1965 1875 
L 1965 1632 
C 1587 1619 1133 1568 774 1373 
C 371 1147 256 822 256 576 
C 256 77 832 -64 1171 -64 
C 1523 -64 1850 135 1990 505 
C 2003 219 2182 -39 2464 -39 
C 2598 -39 2938 51 2938 563 
L 2938 926 
L 2822 926 
L 2822 557 
C 2822 161 2650 109 2566 109 
C 2304 109 2304 446 2304 732 
L 2304 1656 
z
M 1965 887 
C 1965 323 1568 38 1216 38 
C 896 38 646 278 646 576 
C 646 771 730 1114 1101 1322 
C 1408 1497 1760 1523 1965 1536 
L 1965 887 
z
" transform="scale(0.015625)"/>
       <path id="CMR17-5b" d="M 1504 -1600 
L 1504 -1376 
L 902 -1376 
L 902 4575 
L 1504 4575 
L 1504 4800 
L 678 4800 
L 678 -1600 
L 1504 -1600 
z
" transform="scale(0.015625)"/>
       <path id="CMR17-79" d="M 2496 2183 
C 2656 2579 2944 2585 3034 2585 
L 3034 2752 
C 2912 2745 2752 2739 2630 2739 
C 2496 2739 2285 2739 2157 2752 
L 2157 2585 
C 2400 2566 2406 2384 2406 2332 
C 2406 2268 2394 2235 2362 2158 
L 1664 409 
L 902 2300 
C 870 2378 870 2423 870 2430 
C 870 2572 1018 2585 1171 2585 
L 1171 2752 
C 1018 2739 742 2739 582 2739 
C 410 2739 205 2739 64 2752 
L 64 2585 
C 410 2585 448 2553 531 2345 
L 1485 -31 
C 1197 -795 1030 -1242 627 -1242 
C 557 -1242 397 -1223 282 -1106 
C 429 -1093 493 -1002 493 -892 
C 493 -782 416 -685 288 -685 
C 147 -685 77 -782 77 -899 
C 77 -1158 339 -1344 627 -1344 
C 998 -1344 1229 -983 1357 -659 
L 2496 2183 
z
" transform="scale(0.015625)"/>
       <path id="CMR17-5d" d="M 915 4800 
L 90 4800 
L 90 4575 
L 691 4575 
L 691 -1376 
L 90 -1376 
L 90 -1600 
L 915 -1600 
L 915 4800 
z
" transform="scale(0.015625)"/>
      </defs>
      <use xlink:href="#CMR17-54" transform="scale(0.996264)"/>
      <use xlink:href="#CMR17-69" transform="translate(66.509881 0) scale(0.996264)"/>
      <use xlink:href="#CMR17-6d" transform="translate(91.380939 0) scale(0.996264)"/>
      <use xlink:href="#CMR17-65" transform="translate(168.300529 0) scale(0.996264)"/>
      <use xlink:href="#CMR17-42" transform="translate(238.862156 0) scale(0.996264)"/>
      <use xlink:href="#CMR17-65" transform="translate(304.05091 0) scale(0.996264)"/>
      <use xlink:href="#CMR17-66" transform="translate(344.536571 0) scale(0.996264)"/>
      <use xlink:href="#CMR17-6f" transform="translate(372.010083 0) scale(0.996264)"/>
      <use xlink:href="#CMR17-72" transform="translate(417.70056 0) scale(0.996264)"/>
      <use xlink:href="#CMR17-65" transform="translate(452.981328 0) scale(0.996264)"/>
      <use xlink:href="#CMR17-46" transform="translate(523.542955 0) scale(0.996264)"/>
      <use xlink:href="#CMR17-69" transform="translate(583.526801 0) scale(0.996264)"/>
      <use xlink:href="#CMR17-72" transform="translate(608.39786 0) scale(0.996264)"/>
      <use xlink:href="#CMR17-73" transform="translate(643.678628 0) scale(0.996264)"/>
      <use xlink:href="#CMR17-74" transform="translate(679.479965 0) scale(0.996264)"/>
      <use xlink:href="#CMR17-4e" transform="translate(744.836699 0) scale(0.996264)"/>
      <use xlink:href="#CMR17-6f" transform="translate(813.909129 0) scale(0.996264)"/>
      <use xlink:href="#CMR17-76" transform="translate(856.997152 0) scale(0.996264)"/>
      <use xlink:href="#CMR17-61" transform="translate(900.085252 0) scale(0.996264)"/>
      <use xlink:href="#CMR17-5b" transform="translate(975.851695 0) scale(0.996264)"/>
      <use xlink:href="#CMR17-79" transform="translate(1000.722754 0) scale(0.996264)"/>
      <use xlink:href="#CMR17-72" transform="translate(1049.015669 0) scale(0.996264)"/>
      <use xlink:href="#CMR17-5d" transform="translate(1084.296437 0) scale(0.996264)"/>
     </g>
    </g>
   </g>
   <g id="matplotlib.axis_2">
    <g id="ytick_1">
     <g id="line2d_11">
      <defs>
       <path id="me2f82b2bd2" d="M 0 0 
L 3.5 0 
" style="stroke: #000000; stroke-width: 0.8"/>
      </defs>
      <g>
       <use xlink:href="#me2f82b2bd2" x="39.092704" y="100.526139" style="stroke: #000000; stroke-width: 0.8"/>
      </g>
     </g>
     <g id="text_7">
      <!-- $\mathdefault{4.0}$ -->
      <g transform="translate(22.862625 103.985388) scale(0.1 -0.1)">
       <defs>
        <path id="CMR17-34" d="M 2150 4147 
C 2150 4281 2144 4288 2029 4288 
L 128 1254 
L 128 1088 
L 1779 1088 
L 1779 460 
C 1779 230 1766 166 1318 166 
L 1197 166 
L 1197 0 
C 1402 12 1747 12 1965 12 
C 2182 12 2528 12 2733 0 
L 2733 166 
L 2611 166 
C 2163 166 2150 230 2150 460 
L 2150 1088 
L 2803 1088 
L 2803 1254 
L 2150 1254 
L 2150 4147 
z
M 1798 3723 
L 1798 1254 
L 256 1254 
L 1798 3723 
z
" transform="scale(0.015625)"/>
        <path id="CMMI12-3a" d="M 1178 307 
C 1178 492 1024 620 870 620 
C 685 620 557 467 557 313 
C 557 128 710 0 864 0 
C 1050 0 1178 153 1178 307 
z
" transform="scale(0.015625)"/>
       </defs>
       <use xlink:href="#CMR17-34" transform="scale(0.996264)"/>
       <use xlink:href="#CMMI12-3a" transform="translate(45.690477 0) scale(0.996264)"/>
       <use xlink:href="#CMR17-30" transform="translate(72.787654 0) scale(0.996264)"/>
      </g>
     </g>
    </g>
    <g id="ytick_2">
     <g id="line2d_12">
      <g>
       <use xlink:href="#me2f82b2bd2" x="39.092704" y="78.388247" style="stroke: #000000; stroke-width: 0.8"/>
      </g>
     </g>
     <g id="text_8">
      <!-- $\mathdefault{4.5}$ -->
      <g transform="translate(22.862625 81.847496) scale(0.1 -0.1)">
       <use xlink:href="#CMR17-34" transform="scale(0.996264)"/>
       <use xlink:href="#CMMI12-3a" transform="translate(45.690477 0) scale(0.996264)"/>
       <use xlink:href="#CMR17-35" transform="translate(72.787654 0) scale(0.996264)"/>
      </g>
     </g>
    </g>
    <g id="ytick_3">
     <g id="line2d_13">
      <g>
       <use xlink:href="#me2f82b2bd2" x="39.092704" y="56.250354" style="stroke: #000000; stroke-width: 0.8"/>
      </g>
     </g>
     <g id="text_9">
      <!-- $\mathdefault{5.0}$ -->
      <g transform="translate(22.862625 59.709603) scale(0.1 -0.1)">
       <use xlink:href="#CMR17-35" transform="scale(0.996264)"/>
       <use xlink:href="#CMMI12-3a" transform="translate(45.690477 0) scale(0.996264)"/>
       <use xlink:href="#CMR17-30" transform="translate(72.787654 0) scale(0.996264)"/>
      </g>
     </g>
    </g>
    <g id="ytick_4">
     <g id="line2d_14">
      <g>
       <use xlink:href="#me2f82b2bd2" x="39.092704" y="34.112461" style="stroke: #000000; stroke-width: 0.8"/>
      </g>
     </g>
     <g id="text_10">
      <!-- $\mathdefault{5.5}$ -->
      <g transform="translate(22.862625 37.57171) scale(0.1 -0.1)">
       <use xlink:href="#CMR17-35" transform="scale(0.996264)"/>
       <use xlink:href="#CMMI12-3a" transform="translate(45.690477 0) scale(0.996264)"/>
       <use xlink:href="#CMR17-35" transform="translate(72.787654 0) scale(0.996264)"/>
      </g>
     </g>
    </g>
    <g id="ytick_5">
     <g id="line2d_15">
      <g>
       <use xlink:href="#me2f82b2bd2" x="39.092704" y="11.974568" style="stroke: #000000; stroke-width: 0.8"/>
      </g>
     </g>
     <g id="text_11">
      <!-- $\mathdefault{6.0}$ -->
      <g transform="translate(22.862625 15.433818) scale(0.1 -0.1)">
       <defs>
        <path id="CMR17-36" d="M 678 2198 
C 678 3712 1395 4076 1811 4076 
C 1946 4076 2272 4049 2400 3782 
C 2298 3782 2106 3782 2106 3558 
C 2106 3385 2246 3328 2336 3328 
C 2394 3328 2566 3353 2566 3571 
C 2566 3987 2246 4224 1805 4224 
C 1043 4224 243 3411 243 2011 
C 243 257 966 -128 1478 -128 
C 2099 -128 2688 431 2688 1295 
C 2688 2101 2170 2688 1517 2688 
C 1126 2688 838 2430 678 1979 
L 678 2198 
z
M 1478 25 
C 691 25 691 1212 691 1450 
C 691 1914 909 2585 1504 2585 
C 1613 2585 1926 2585 2138 2140 
C 2253 1889 2253 1624 2253 1302 
C 2253 954 2253 696 2118 438 
C 1978 173 1773 25 1478 25 
z
" transform="scale(0.015625)"/>
       </defs>
       <use xlink:href="#CMR17-36" transform="scale(0.996264)"/>
       <use xlink:href="#CMMI12-3a" transform="translate(45.690477 0) scale(0.996264)"/>
       <use xlink:href="#CMR17-30" transform="translate(72.787654 0) scale(0.996264)"/>
      </g>
     </g>
    </g>
    <g id="ytick_6">
     <g id="line2d_16">
      <defs>
       <path id="m6a1b95b1b0" d="M 0 0 
L 2 0 
" style="stroke: #000000; stroke-width: 0.6"/>
      </defs>
      <g>
       <use xlink:href="#m6a1b95b1b0" x="39.092704" y="109.381296" style="stroke: #000000; stroke-width: 0.6"/>
      </g>
     </g>
    </g>
    <g id="ytick_7">
     <g id="line2d_17">
      <g>
       <use xlink:href="#m6a1b95b1b0" x="39.092704" y="104.953718" style="stroke: #000000; stroke-width: 0.6"/>
      </g>
     </g>
    </g>
    <g id="ytick_8">
     <g id="line2d_18">
      <g>
       <use xlink:href="#m6a1b95b1b0" x="39.092704" y="96.098561" style="stroke: #000000; stroke-width: 0.6"/>
      </g>
     </g>
    </g>
    <g id="ytick_9">
     <g id="line2d_19">
      <g>
       <use xlink:href="#m6a1b95b1b0" x="39.092704" y="91.670982" style="stroke: #000000; stroke-width: 0.6"/>
      </g>
     </g>
    </g>
    <g id="ytick_10">
     <g id="line2d_20">
      <g>
       <use xlink:href="#m6a1b95b1b0" x="39.092704" y="87.243404" style="stroke: #000000; stroke-width: 0.6"/>
      </g>
     </g>
    </g>
    <g id="ytick_11">
     <g id="line2d_21">
      <g>
       <use xlink:href="#m6a1b95b1b0" x="39.092704" y="82.815825" style="stroke: #000000; stroke-width: 0.6"/>
      </g>
     </g>
    </g>
    <g id="ytick_12">
     <g id="line2d_22">
      <g>
       <use xlink:href="#m6a1b95b1b0" x="39.092704" y="73.960668" style="stroke: #000000; stroke-width: 0.6"/>
      </g>
     </g>
    </g>
    <g id="ytick_13">
     <g id="line2d_23">
      <g>
       <use xlink:href="#m6a1b95b1b0" x="39.092704" y="69.533089" style="stroke: #000000; stroke-width: 0.6"/>
      </g>
     </g>
    </g>
    <g id="ytick_14">
     <g id="line2d_24">
      <g>
       <use xlink:href="#m6a1b95b1b0" x="39.092704" y="65.105511" style="stroke: #000000; stroke-width: 0.6"/>
      </g>
     </g>
    </g>
    <g id="ytick_15">
     <g id="line2d_25">
      <g>
       <use xlink:href="#m6a1b95b1b0" x="39.092704" y="60.677932" style="stroke: #000000; stroke-width: 0.6"/>
      </g>
     </g>
    </g>
    <g id="ytick_16">
     <g id="line2d_26">
      <g>
       <use xlink:href="#m6a1b95b1b0" x="39.092704" y="51.822775" style="stroke: #000000; stroke-width: 0.6"/>
      </g>
     </g>
    </g>
    <g id="ytick_17">
     <g id="line2d_27">
      <g>
       <use xlink:href="#m6a1b95b1b0" x="39.092704" y="47.395197" style="stroke: #000000; stroke-width: 0.6"/>
      </g>
     </g>
    </g>
    <g id="ytick_18">
     <g id="line2d_28">
      <g>
       <use xlink:href="#m6a1b95b1b0" x="39.092704" y="42.967618" style="stroke: #000000; stroke-width: 0.6"/>
      </g>
     </g>
    </g>
    <g id="ytick_19">
     <g id="line2d_29">
      <g>
       <use xlink:href="#m6a1b95b1b0" x="39.092704" y="38.54004" style="stroke: #000000; stroke-width: 0.6"/>
      </g>
     </g>
    </g>
    <g id="ytick_20">
     <g id="line2d_30">
      <g>
       <use xlink:href="#m6a1b95b1b0" x="39.092704" y="29.684883" style="stroke: #000000; stroke-width: 0.6"/>
      </g>
     </g>
    </g>
    <g id="ytick_21">
     <g id="line2d_31">
      <g>
       <use xlink:href="#m6a1b95b1b0" x="39.092704" y="25.257304" style="stroke: #000000; stroke-width: 0.6"/>
      </g>
     </g>
    </g>
    <g id="ytick_22">
     <g id="line2d_32">
      <g>
       <use xlink:href="#m6a1b95b1b0" x="39.092704" y="20.829725" style="stroke: #000000; stroke-width: 0.6"/>
      </g>
     </g>
    </g>
    <g id="ytick_23">
     <g id="line2d_33">
      <g>
       <use xlink:href="#m6a1b95b1b0" x="39.092704" y="16.402147" style="stroke: #000000; stroke-width: 0.6"/>
      </g>
     </g>
    </g>
    <g id="ytick_24">
     <g id="line2d_34">
      <g>
       <use xlink:href="#m6a1b95b1b0" x="39.092704" y="7.54699" style="stroke: #000000; stroke-width: 0.6"/>
      </g>
     </g>
    </g>
    <g id="text_12">
     <!-- $\dot{M}_{\mathrm{transfer}}$ [$M_\odot/\mathrm{yr}$] -->
     <g transform="translate(16.371965 97.935815) rotate(-90) scale(0.1 -0.1)">
      <defs>
       <path id="CMR17-5f" d="M 1056 3961 
C 1056 4115 934 4224 800 4224 
C 646 4224 538 4102 538 3961 
C 538 3807 659 3699 794 3699 
C 947 3699 1056 3820 1056 3961 
z
" transform="scale(0.015625)"/>
       <path id="CMMI12-4d" d="M 5811 3886 
C 5869 4102 5882 4166 6336 4166 
C 6458 4166 6515 4166 6515 4287 
C 6515 4352 6470 4352 6349 4352 
L 5581 4352 
C 5421 4352 5414 4345 5344 4243 
L 3008 567 
L 2528 4211 
C 2509 4352 2502 4352 2336 4352 
L 1542 4352 
C 1421 4352 1363 4352 1363 4230 
C 1363 4166 1421 4166 1517 4166 
C 1907 4166 1907 4115 1907 4045 
C 1907 4032 1907 3994 1882 3898 
L 1062 650 
C 986 344 838 204 410 185 
C 390 185 314 179 314 70 
C 314 0 371 0 397 0 
C 525 0 851 12 979 12 
L 1286 12 
C 1376 12 1485 0 1574 0 
C 1619 0 1690 0 1690 121 
C 1690 179 1626 185 1600 185 
C 1389 191 1184 230 1184 459 
C 1184 523 1184 529 1210 618 
L 2093 4128 
L 2099 4128 
L 2630 172 
C 2650 19 2656 0 2714 0 
C 2784 0 2816 51 2848 108 
L 5421 4159 
L 5427 4159 
L 4499 472 
C 4442 249 4429 185 3981 185 
C 3859 185 3795 185 3795 70 
C 3795 0 3853 0 3891 0 
C 4000 0 4128 12 4237 12 
L 4992 12 
C 5101 12 5235 0 5344 0 
C 5395 0 5466 0 5466 121 
C 5466 185 5408 185 5312 185 
C 4922 185 4922 236 4922 300 
C 4922 306 4922 351 4934 402 
L 5811 3886 
z
" transform="scale(0.015625)"/>
       <path id="CMR17-6e" d="M 2656 1954 
C 2656 2282 2592 2816 1837 2816 
C 1331 2816 1069 2424 973 2166 
L 966 2166 
L 966 2816 
L 211 2745 
L 211 2578 
C 589 2578 646 2540 646 2231 
L 646 443 
C 646 198 621 166 211 166 
L 211 0 
C 365 12 646 12 813 12 
C 979 12 1267 12 1421 0 
L 1421 166 
C 1011 166 986 192 986 443 
L 986 1678 
C 986 2269 1344 2713 1792 2713 
C 2266 2713 2317 2289 2317 1980 
L 2317 443 
C 2317 198 2291 166 1882 166 
L 1882 0 
C 2035 12 2317 12 2483 12 
C 2650 12 2938 12 3091 0 
L 3091 166 
C 2682 166 2656 192 2656 443 
L 2656 1954 
z
" transform="scale(0.015625)"/>
       <path id="CMSY10-c" d="M 4621 1606 
C 4621 2787 3661 3744 2490 3744 
C 1299 3744 352 2774 352 1606 
C 352 419 1312 -545 2483 -545 
C 3674 -545 4621 432 4621 1606 
z
M 2490 -384 
C 1389 -384 512 516 512 1606 
C 512 2709 1408 3584 2483 3584 
C 3584 3584 4461 2690 4461 1606 
C 4461 497 3565 -384 2490 -384 
z
M 2925 1606 
C 2925 1849 2726 2048 2490 2048 
C 2234 2048 2048 1836 2048 1606 
C 2048 1363 2246 1164 2483 1164 
C 2739 1164 2925 1375 2925 1606 
z
" transform="scale(0.015625)"/>
       <path id="CMMI12-3d" d="M 2746 4563 
C 2746 4569 2784 4665 2784 4678 
C 2784 4755 2720 4800 2669 4800 
C 2637 4800 2579 4800 2528 4659 
L 384 -1364 
C 384 -1370 346 -1466 346 -1479 
C 346 -1556 410 -1600 461 -1600 
C 499 -1600 557 -1594 602 -1460 
L 2746 4563 
z
" transform="scale(0.015625)"/>
      </defs>
      <use xlink:href="#CMR17-5f" transform="translate(48.083663 25.189733) scale(0.996264)"/>
      <use xlink:href="#CMMI12-4d" transform="scale(0.996264)"/>
      <use xlink:href="#CMR17-74" transform="translate(94.373425 -14.943915) scale(0.697382)"/>
      <use xlink:href="#CMR17-72" transform="translate(119.069846 -14.943915) scale(0.697382)"/>
      <use xlink:href="#CMR17-61" transform="translate(143.766266 -14.943915) scale(0.697382)"/>
      <use xlink:href="#CMR17-6e" transform="translate(175.749448 -14.943915) scale(0.697382)"/>
      <use xlink:href="#CMR17-73" transform="translate(211.376056 -14.943915) scale(0.697382)"/>
      <use xlink:href="#CMR17-66" transform="translate(236.436879 -14.943915) scale(0.697382)"/>
      <use xlink:href="#CMR17-65" transform="translate(255.668243 -14.943915) scale(0.697382)"/>
      <use xlink:href="#CMR17-72" transform="translate(284.008075 -14.943915) scale(0.697382)"/>
      <use xlink:href="#CMR17-5b" transform="translate(339.278593 0) scale(0.996264)"/>
      <use xlink:href="#CMMI12-4d" transform="translate(364.149652 0) scale(0.996264)"/>
      <use xlink:href="#CMSY10-c" transform="translate(458.523077 -14.943915) scale(0.697382)"/>
      <use xlink:href="#CMMI12-3d" transform="translate(513.262202 0) scale(0.996264)"/>
      <use xlink:href="#CMR17-79" transform="translate(562.037121 0) scale(0.996264)"/>
      <use xlink:href="#CMR17-72" transform="translate(610.330037 0) scale(0.996264)"/>
      <use xlink:href="#CMR17-5d" transform="translate(645.610805 0) scale(0.996264)"/>
     </g>
    </g>
   </g>
   <g id="line2d_35">
    <path d="M 39.098775 11.974606 
L 41.318688 24.21192 
L 43.602259 35.584029 
L 45.709834 45.025052 
L 47.79514 53.4122 
L 49.942699 61.109629 
L 51.971811 67.559507 
L 53.895628 72.983671 
L 55.880945 77.925973 
L 57.780673 82.080398 
L 59.747061 85.839692 
L 61.644906 88.994831 
L 63.615251 91.829111 
L 65.531462 94.201218 
L 67.526102 96.315304 
L 69.599499 98.177448 
L 71.75283 99.799245 
L 73.987966 101.196268 
L 76.307335 102.386746 
L 78.827808 103.432871 
L 81.662597 104.360183 
L 84.811616 105.147125 
L 88.390366 105.805928 
L 92.630619 106.351739 
L 97.779742 106.782061 
L 104.485564 107.106755 
L 113.973956 107.32554 
L 129.716168 107.440052 
L 176.750788 107.466509 
L 300.334007 107.466733 
L 300.334007 107.466733 
" clip-path="url(#p47fd378bc8)" style="fill: none; stroke-dasharray: 5.55,2.4; stroke-dashoffset: 0; stroke: #b4646e; stroke-width: 1.5"/>
   </g>
   <g id="patch_3">
    <path d="M 39.092704 112.241339 
L 39.092704 7.2 
" style="fill: none; stroke: #000000; stroke-width: 0.8; stroke-linejoin: miter; stroke-linecap: square"/>
   </g>
   <g id="patch_4">
    <path d="M 250.539556 112.241339 
L 250.539556 7.2 
" style="fill: none; stroke: #000000; stroke-width: 0.8; stroke-linejoin: miter; stroke-linecap: square"/>
   </g>
   <g id="patch_5">
    <path d="M 39.092704 112.241339 
L 250.539556 112.241339 
" style="fill: none; stroke: #000000; stroke-width: 0.8; stroke-linejoin: miter; stroke-linecap: square"/>
   </g>
   <g id="patch_6">
    <path d="M 39.092704 7.2 
L 250.539556 7.2 
" style="fill: none; stroke: #000000; stroke-width: 0.8; stroke-linejoin: miter; stroke-linecap: square"/>
   </g>
  </g>
  <g id="axes_2">
   <g id="matplotlib.axis_3">
    <g id="ytick_25">
     <g id="line2d_36">
      <defs>
       <path id="me6d0721c16" d="M 0 0 
L -3.5 0 
" style="stroke: #000000; stroke-width: 0.8"/>
      </defs>
      <g>
       <use xlink:href="#me6d0721c16" x="250.539556" y="101.256562" style="stroke: #000000; stroke-width: 0.8"/>
      </g>
     </g>
     <g id="text_13">
      <!-- $\mathdefault{10^{-11}}$ -->
      <g transform="translate(254.039556 104.715812) scale(0.1 -0.1)">
       <use xlink:href="#CMR17-31" transform="scale(0.996264)"/>
       <use xlink:href="#CMR17-30" transform="translate(45.690477 0) scale(0.996264)"/>
       <use xlink:href="#CMSY10-0" transform="translate(91.380954 36.153639) scale(0.697382)"/>
       <use xlink:href="#CMR17-31" transform="translate(145.621947 36.153639) scale(0.697382)"/>
       <use xlink:href="#CMR17-31" transform="translate(177.605129 36.153639) scale(0.697382)"/>
      </g>
     </g>
    </g>
    <g id="ytick_26">
     <g id="line2d_37">
      <g>
       <use xlink:href="#me6d0721c16" x="250.539556" y="80.248295" style="stroke: #000000; stroke-width: 0.8"/>
      </g>
     </g>
     <g id="text_14">
      <!-- $\mathdefault{10^{-10}}$ -->
      <g transform="translate(254.039556 83.707544) scale(0.1 -0.1)">
       <use xlink:href="#CMR17-31" transform="scale(0.996264)"/>
       <use xlink:href="#CMR17-30" transform="translate(45.690477 0) scale(0.996264)"/>
       <use xlink:href="#CMSY10-0" transform="translate(91.380954 36.153639) scale(0.697382)"/>
       <use xlink:href="#CMR17-31" transform="translate(145.621947 36.153639) scale(0.697382)"/>
       <use xlink:href="#CMR17-30" transform="translate(177.605129 36.153639) scale(0.697382)"/>
      </g>
     </g>
    </g>
    <g id="ytick_27">
     <g id="line2d_38">
      <g>
       <use xlink:href="#me6d0721c16" x="250.539556" y="59.240027" style="stroke: #000000; stroke-width: 0.8"/>
      </g>
     </g>
     <g id="text_15">
      <!-- $\mathdefault{10^{-9}}$ -->
      <g transform="translate(254.039556 62.699276) scale(0.1 -0.1)">
       <defs>
        <path id="CMR17-39" d="M 2253 1871 
C 2253 448 1670 25 1190 25 
C 1043 25 685 43 538 281 
C 704 256 826 345 826 505 
C 826 678 685 736 595 736 
C 538 736 365 710 365 492 
C 365 68 742 -128 1203 -128 
C 1939 -128 2688 665 2688 2090 
C 2688 3857 1971 4224 1485 4224 
C 851 4224 243 3664 243 2800 
C 243 2000 762 1408 1414 1408 
C 1952 1408 2189 1910 2253 2122 
L 2253 1871 
z
M 1427 1510 
C 1254 1510 1011 1542 813 1929 
C 678 2181 678 2477 678 2793 
C 678 3174 678 3438 858 3722 
C 947 3857 1114 4076 1485 4076 
C 2240 4076 2240 2909 2240 2651 
C 2240 2193 2035 1510 1427 1510 
z
" transform="scale(0.015625)"/>
       </defs>
       <use xlink:href="#CMR17-31" transform="scale(0.996264)"/>
       <use xlink:href="#CMR17-30" transform="translate(45.690477 0) scale(0.996264)"/>
       <use xlink:href="#CMSY10-0" transform="translate(91.380954 36.153639) scale(0.697382)"/>
       <use xlink:href="#CMR17-39" transform="translate(145.621947 36.153639) scale(0.697382)"/>
      </g>
     </g>
    </g>
    <g id="ytick_28">
     <g id="line2d_39">
      <g>
       <use xlink:href="#me6d0721c16" x="250.539556" y="38.231759" style="stroke: #000000; stroke-width: 0.8"/>
      </g>
     </g>
     <g id="text_16">
      <!-- $\mathdefault{10^{-8}}$ -->
      <g transform="translate(254.039556 41.691008) scale(0.1 -0.1)">
       <defs>
        <path id="CMR17-38" d="M 1741 2289 
C 2144 2494 2554 2803 2554 3298 
C 2554 3884 1990 4224 1472 4224 
C 890 4224 378 3800 378 3215 
C 378 3054 416 2777 666 2533 
C 730 2469 998 2276 1171 2154 
C 883 2006 211 1652 211 945 
C 211 282 838 -128 1459 -128 
C 2144 -128 2720 366 2720 1022 
C 2720 1607 2330 1877 2074 2051 
L 1741 2289 
z
M 902 2855 
C 851 2887 595 3086 595 3388 
C 595 3781 998 4076 1459 4076 
C 1965 4076 2336 3716 2336 3298 
C 2336 2700 1670 2359 1638 2359 
C 1632 2359 1626 2359 1574 2398 
L 902 2855 
z
M 2080 1536 
C 2176 1466 2483 1253 2483 861 
C 2483 385 2010 25 1472 25 
C 890 25 448 443 448 951 
C 448 1459 838 1884 1280 2083 
L 2080 1536 
z
" transform="scale(0.015625)"/>
       </defs>
       <use xlink:href="#CMR17-31" transform="scale(0.996264)"/>
       <use xlink:href="#CMR17-30" transform="translate(45.690477 0) scale(0.996264)"/>
       <use xlink:href="#CMSY10-0" transform="translate(91.380954 36.153639) scale(0.697382)"/>
       <use xlink:href="#CMR17-38" transform="translate(145.621947 36.153639) scale(0.697382)"/>
      </g>
     </g>
    </g>
    <g id="ytick_29">
     <g id="line2d_40">
      <g>
       <use xlink:href="#me6d0721c16" x="250.539556" y="17.223491" style="stroke: #000000; stroke-width: 0.8"/>
      </g>
     </g>
     <g id="text_17">
      <!-- $\mathdefault{10^{-7}}$ -->
      <g transform="translate(254.039556 20.68274) scale(0.1 -0.1)">
       <use xlink:href="#CMR17-31" transform="scale(0.996264)"/>
       <use xlink:href="#CMR17-30" transform="translate(45.690477 0) scale(0.996264)"/>
       <use xlink:href="#CMSY10-0" transform="translate(91.380954 36.153639) scale(0.697382)"/>
       <use xlink:href="#CMR17-37" transform="translate(145.621947 36.153639) scale(0.697382)"/>
      </g>
     </g>
    </g>
    <g id="ytick_30">
     <g id="line2d_41">
      <defs>
       <path id="m41a276f178" d="M 0 0 
L -2 0 
" style="stroke: #000000; stroke-width: 0.6"/>
      </defs>
      <g>
       <use xlink:href="#m41a276f178" x="250.539556" y="112.241339" style="stroke: #000000; stroke-width: 0.6"/>
      </g>
     </g>
    </g>
    <g id="ytick_31">
     <g id="line2d_42">
      <g>
       <use xlink:href="#m41a276f178" x="250.539556" y="109.616593" style="stroke: #000000; stroke-width: 0.6"/>
      </g>
     </g>
    </g>
    <g id="ytick_32">
     <g id="line2d_43">
      <g>
       <use xlink:href="#m41a276f178" x="250.539556" y="107.580681" style="stroke: #000000; stroke-width: 0.6"/>
      </g>
     </g>
    </g>
    <g id="ytick_33">
     <g id="line2d_44">
      <g>
       <use xlink:href="#m41a276f178" x="250.539556" y="105.91722" style="stroke: #000000; stroke-width: 0.6"/>
      </g>
     </g>
    </g>
    <g id="ytick_34">
     <g id="line2d_45">
      <g>
       <use xlink:href="#m41a276f178" x="250.539556" y="104.510784" style="stroke: #000000; stroke-width: 0.6"/>
      </g>
     </g>
    </g>
    <g id="ytick_35">
     <g id="line2d_46">
      <g>
       <use xlink:href="#m41a276f178" x="250.539556" y="103.292474" style="stroke: #000000; stroke-width: 0.6"/>
      </g>
     </g>
    </g>
    <g id="ytick_36">
     <g id="line2d_47">
      <g>
       <use xlink:href="#m41a276f178" x="250.539556" y="102.217848" style="stroke: #000000; stroke-width: 0.6"/>
      </g>
     </g>
    </g>
    <g id="ytick_37">
     <g id="line2d_48">
      <g>
       <use xlink:href="#m41a276f178" x="250.539556" y="94.932444" style="stroke: #000000; stroke-width: 0.6"/>
      </g>
     </g>
    </g>
    <g id="ytick_38">
     <g id="line2d_49">
      <g>
       <use xlink:href="#m41a276f178" x="250.539556" y="91.233071" style="stroke: #000000; stroke-width: 0.6"/>
      </g>
     </g>
    </g>
    <g id="ytick_39">
     <g id="line2d_50">
      <g>
       <use xlink:href="#m41a276f178" x="250.539556" y="88.608325" style="stroke: #000000; stroke-width: 0.6"/>
      </g>
     </g>
    </g>
    <g id="ytick_40">
     <g id="line2d_51">
      <g>
       <use xlink:href="#m41a276f178" x="250.539556" y="86.572413" style="stroke: #000000; stroke-width: 0.6"/>
      </g>
     </g>
    </g>
    <g id="ytick_41">
     <g id="line2d_52">
      <g>
       <use xlink:href="#m41a276f178" x="250.539556" y="84.908953" style="stroke: #000000; stroke-width: 0.6"/>
      </g>
     </g>
    </g>
    <g id="ytick_42">
     <g id="line2d_53">
      <g>
       <use xlink:href="#m41a276f178" x="250.539556" y="83.502516" style="stroke: #000000; stroke-width: 0.6"/>
      </g>
     </g>
    </g>
    <g id="ytick_43">
     <g id="line2d_54">
      <g>
       <use xlink:href="#m41a276f178" x="250.539556" y="82.284206" style="stroke: #000000; stroke-width: 0.6"/>
      </g>
     </g>
    </g>
    <g id="ytick_44">
     <g id="line2d_55">
      <g>
       <use xlink:href="#m41a276f178" x="250.539556" y="81.20958" style="stroke: #000000; stroke-width: 0.6"/>
      </g>
     </g>
    </g>
    <g id="ytick_45">
     <g id="line2d_56">
      <g>
       <use xlink:href="#m41a276f178" x="250.539556" y="73.924176" style="stroke: #000000; stroke-width: 0.6"/>
      </g>
     </g>
    </g>
    <g id="ytick_46">
     <g id="line2d_57">
      <g>
       <use xlink:href="#m41a276f178" x="250.539556" y="70.224804" style="stroke: #000000; stroke-width: 0.6"/>
      </g>
     </g>
    </g>
    <g id="ytick_47">
     <g id="line2d_58">
      <g>
       <use xlink:href="#m41a276f178" x="250.539556" y="67.600057" style="stroke: #000000; stroke-width: 0.6"/>
      </g>
     </g>
    </g>
    <g id="ytick_48">
     <g id="line2d_59">
      <g>
       <use xlink:href="#m41a276f178" x="250.539556" y="65.564146" style="stroke: #000000; stroke-width: 0.6"/>
      </g>
     </g>
    </g>
    <g id="ytick_49">
     <g id="line2d_60">
      <g>
       <use xlink:href="#m41a276f178" x="250.539556" y="63.900685" style="stroke: #000000; stroke-width: 0.6"/>
      </g>
     </g>
    </g>
    <g id="ytick_50">
     <g id="line2d_61">
      <g>
       <use xlink:href="#m41a276f178" x="250.539556" y="62.494249" style="stroke: #000000; stroke-width: 0.6"/>
      </g>
     </g>
    </g>
    <g id="ytick_51">
     <g id="line2d_62">
      <g>
       <use xlink:href="#m41a276f178" x="250.539556" y="61.275938" style="stroke: #000000; stroke-width: 0.6"/>
      </g>
     </g>
    </g>
    <g id="ytick_52">
     <g id="line2d_63">
      <g>
       <use xlink:href="#m41a276f178" x="250.539556" y="60.201312" style="stroke: #000000; stroke-width: 0.6"/>
      </g>
     </g>
    </g>
    <g id="ytick_53">
     <g id="line2d_64">
      <g>
       <use xlink:href="#m41a276f178" x="250.539556" y="52.915908" style="stroke: #000000; stroke-width: 0.6"/>
      </g>
     </g>
    </g>
    <g id="ytick_54">
     <g id="line2d_65">
      <g>
       <use xlink:href="#m41a276f178" x="250.539556" y="49.216536" style="stroke: #000000; stroke-width: 0.6"/>
      </g>
     </g>
    </g>
    <g id="ytick_55">
     <g id="line2d_66">
      <g>
       <use xlink:href="#m41a276f178" x="250.539556" y="46.591789" style="stroke: #000000; stroke-width: 0.6"/>
      </g>
     </g>
    </g>
    <g id="ytick_56">
     <g id="line2d_67">
      <g>
       <use xlink:href="#m41a276f178" x="250.539556" y="44.555878" style="stroke: #000000; stroke-width: 0.6"/>
      </g>
     </g>
    </g>
    <g id="ytick_57">
     <g id="line2d_68">
      <g>
       <use xlink:href="#m41a276f178" x="250.539556" y="42.892417" style="stroke: #000000; stroke-width: 0.6"/>
      </g>
     </g>
    </g>
    <g id="ytick_58">
     <g id="line2d_69">
      <g>
       <use xlink:href="#m41a276f178" x="250.539556" y="41.485981" style="stroke: #000000; stroke-width: 0.6"/>
      </g>
     </g>
    </g>
    <g id="ytick_59">
     <g id="line2d_70">
      <g>
       <use xlink:href="#m41a276f178" x="250.539556" y="40.26767" style="stroke: #000000; stroke-width: 0.6"/>
      </g>
     </g>
    </g>
    <g id="ytick_60">
     <g id="line2d_71">
      <g>
       <use xlink:href="#m41a276f178" x="250.539556" y="39.193045" style="stroke: #000000; stroke-width: 0.6"/>
      </g>
     </g>
    </g>
    <g id="ytick_61">
     <g id="line2d_72">
      <g>
       <use xlink:href="#m41a276f178" x="250.539556" y="31.90764" style="stroke: #000000; stroke-width: 0.6"/>
      </g>
     </g>
    </g>
    <g id="ytick_62">
     <g id="line2d_73">
      <g>
       <use xlink:href="#m41a276f178" x="250.539556" y="28.208268" style="stroke: #000000; stroke-width: 0.6"/>
      </g>
     </g>
    </g>
    <g id="ytick_63">
     <g id="line2d_74">
      <g>
       <use xlink:href="#m41a276f178" x="250.539556" y="25.583521" style="stroke: #000000; stroke-width: 0.6"/>
      </g>
     </g>
    </g>
    <g id="ytick_64">
     <g id="line2d_75">
      <g>
       <use xlink:href="#m41a276f178" x="250.539556" y="23.54761" style="stroke: #000000; stroke-width: 0.6"/>
      </g>
     </g>
    </g>
    <g id="ytick_65">
     <g id="line2d_76">
      <g>
       <use xlink:href="#m41a276f178" x="250.539556" y="21.884149" style="stroke: #000000; stroke-width: 0.6"/>
      </g>
     </g>
    </g>
    <g id="ytick_66">
     <g id="line2d_77">
      <g>
       <use xlink:href="#m41a276f178" x="250.539556" y="20.477713" style="stroke: #000000; stroke-width: 0.6"/>
      </g>
     </g>
    </g>
    <g id="ytick_67">
     <g id="line2d_78">
      <g>
       <use xlink:href="#m41a276f178" x="250.539556" y="19.259403" style="stroke: #000000; stroke-width: 0.6"/>
      </g>
     </g>
    </g>
    <g id="ytick_68">
     <g id="line2d_79">
      <g>
       <use xlink:href="#m41a276f178" x="250.539556" y="18.184777" style="stroke: #000000; stroke-width: 0.6"/>
      </g>
     </g>
    </g>
    <g id="ytick_69">
     <g id="line2d_80">
      <g>
       <use xlink:href="#m41a276f178" x="250.539556" y="10.899372" style="stroke: #000000; stroke-width: 0.6"/>
      </g>
     </g>
    </g>
    <g id="ytick_70">
     <g id="line2d_81">
      <g>
       <use xlink:href="#m41a276f178" x="250.539556" y="7.2" style="stroke: #000000; stroke-width: 0.6"/>
      </g>
     </g>
    </g>
    <g id="text_18">
     <!-- Orbital Period [hr] -->
     <g transform="translate(289.643347 100.512236) rotate(-90) scale(0.1 -0.1)">
      <defs>
       <path id="CMR17-4f" d="M 4307 2166 
C 4307 3488 3366 4480 2304 4480 
C 1216 4480 294 3475 294 2166 
C 294 857 1229 -128 2298 -128 
C 3392 -128 4307 876 4307 2166 
z
M 2304 -13 
C 1574 -13 781 722 781 2250 
C 781 3771 1651 4364 2298 4364 
C 2976 4364 3821 3752 3821 2250 
C 3821 696 3008 -13 2304 -13 
z
" transform="scale(0.015625)"/>
       <path id="CMR17-62" d="M 960 4416 
L 198 4345 
L 198 4179 
C 576 4179 634 4141 634 3843 
L 634 -13 
L 749 -13 
L 934 445 
C 1120 141 1395 -64 1766 -64 
C 2406 -64 3053 503 3053 1382 
C 3053 2209 2477 2816 1830 2816 
C 1434 2816 1152 2603 960 2351 
L 960 4416 
z
M 973 2022 
C 973 2138 973 2157 1062 2293 
C 1312 2681 1670 2713 1792 2713 
C 1984 2713 2643 2610 2643 1388 
C 2643 109 1888 38 1734 38 
C 1536 38 1248 115 1043 490 
C 973 613 973 626 973 742 
L 973 2022 
z
" transform="scale(0.015625)"/>
       <path id="CMR17-6c" d="M 979 4416 
L 218 4345 
L 218 4179 
C 595 4179 653 4141 653 3835 
L 653 439 
C 653 198 627 166 218 166 
L 218 0 
C 371 12 653 12 813 12 
C 979 12 1261 12 1414 0 
L 1414 166 
C 1005 166 979 191 979 439 
L 979 4416 
z
" transform="scale(0.015625)"/>
       <path id="CMR17-50" d="M 1267 2048 
L 2291 2048 
C 3117 2048 3718 2583 3718 3187 
C 3718 3791 3130 4352 2291 4352 
L 333 4352 
L 333 4185 
C 774 4185 845 4185 845 3899 
L 845 453 
C 845 166 774 166 333 166 
L 333 0 
C 518 12 858 12 1056 12 
C 1254 12 1594 12 1779 0 
L 1779 166 
C 1338 166 1267 166 1267 453 
L 1267 2048 
z
M 1254 2182 
L 1254 3937 
C 1254 4153 1267 4185 1523 4185 
L 2170 4185 
C 2995 4185 3232 3715 3232 3187 
C 3232 2608 2950 2182 2170 2182 
L 1254 2182 
z
" transform="scale(0.015625)"/>
       <path id="CMR17-64" d="M 1869 4345 
L 1869 4179 
C 2246 4179 2304 4141 2304 3843 
L 2304 2371 
C 2278 2403 2016 2816 1498 2816 
C 845 2816 211 2228 211 1376 
C 211 529 806 -64 1434 -64 
C 1978 -64 2259 361 2291 406 
L 2291 -64 
L 3066 -13 
L 3066 154 
C 2688 154 2630 193 2630 503 
L 2630 4416 
L 1869 4345 
z
M 2291 762 
C 2291 568 2176 393 2029 264 
C 1811 70 1594 38 1472 38 
C 1286 38 621 135 621 1369 
C 621 2636 1363 2713 1530 2713 
C 1824 2713 2061 2545 2208 2313 
C 2291 2177 2291 2157 2291 2041 
L 2291 762 
z
" transform="scale(0.015625)"/>
       <path id="CMR17-68" d="M 2656 1954 
C 2656 2282 2592 2816 1837 2816 
C 1312 2816 1056 2392 979 2179 
L 973 2179 
L 973 4416 
L 211 4345 
L 211 4179 
C 589 4179 646 4141 646 3843 
L 646 443 
C 646 198 621 166 211 166 
L 211 0 
C 365 12 646 12 813 12 
C 979 12 1267 12 1421 0 
L 1421 166 
C 1011 166 986 192 986 443 
L 986 1678 
C 986 2269 1344 2713 1792 2713 
C 2266 2713 2317 2289 2317 1980 
L 2317 443 
C 2317 198 2291 166 1882 166 
L 1882 0 
C 2035 12 2317 12 2483 12 
C 2650 12 2938 12 3091 0 
L 3091 166 
C 2682 166 2656 192 2656 443 
L 2656 1954 
z
" transform="scale(0.015625)"/>
      </defs>
      <use xlink:href="#CMR17-4f" transform="scale(0.996264)"/>
      <use xlink:href="#CMR17-72" transform="translate(71.714788 0) scale(0.996264)"/>
      <use xlink:href="#CMR17-62" transform="translate(106.995556 0) scale(0.996264)"/>
      <use xlink:href="#CMR17-69" transform="translate(157.890926 0) scale(0.996264)"/>
      <use xlink:href="#CMR17-74" transform="translate(182.761984 0) scale(0.996264)"/>
      <use xlink:href="#CMR17-61" transform="translate(218.042752 0) scale(0.996264)"/>
      <use xlink:href="#CMR17-6c" transform="translate(263.733229 0) scale(0.996264)"/>
      <use xlink:href="#CMR17-50" transform="translate(318.680254 0) scale(0.996264)"/>
      <use xlink:href="#CMR17-65" transform="translate(378.664101 0) scale(0.996264)"/>
      <use xlink:href="#CMR17-72" transform="translate(419.149761 0) scale(0.996264)"/>
      <use xlink:href="#CMR17-69" transform="translate(454.430529 0) scale(0.996264)"/>
      <use xlink:href="#CMR17-6f" transform="translate(479.301588 0) scale(0.996264)"/>
      <use xlink:href="#CMR17-64" transform="translate(527.594503 0) scale(0.996264)"/>
      <use xlink:href="#CMR17-5b" transform="translate(608.56584 0) scale(0.996264)"/>
      <use xlink:href="#CMR17-68" transform="translate(633.436898 0) scale(0.996264)"/>
      <use xlink:href="#CMR17-72" transform="translate(684.332268 0) scale(0.996264)"/>
      <use xlink:href="#CMR17-5d" transform="translate(719.613036 0) scale(0.996264)"/>
     </g>
    </g>
   </g>
   <g id="line2d_82">
    <path d="M 107.360156 146.759656 
L 109.515409 128.945507 
L 110.631383 120.995873 
L 113.283041 105.223583 
L 115.927292 92.960495 
L 118.874413 82.453219 
L 121.42456 75.451806 
L 124.311642 69.403092 
L 125.732525 66.873279 
L 127.973973 63.557564 
L 128.277615 63.32728 
L 129.123587 62.225844 
L 130.473841 60.750323 
L 132.337963 58.991973 
L 134.607572 57.270024 
L 137.284396 55.668006 
L 138.515829 54.952827 
L 139.616359 54.597172 
L 140.600441 54.139623 
L 144.459238 52.816353 
L 145.100428 52.591063 
L 145.71343 52.591063 
L 146.872506 52.252433 
L 150.444183 51.573782 
L 150.908931 51.573782 
L 151.364611 51.348492 
L 152.250366 51.348492 
L 153.938604 51.009862 
L 154.753946 51.009862 
L 155.970532 50.783182 
L 156.381782 50.783182 
L 156.799917 50.669841 
L 157.227943 50.669841 
L 157.669403 50.556501 
L 158.128524 50.556501 
L 158.707006 50.331211 
L 159.445498 50.331211 
L 160.405266 50.105921 
L 161.684598 50.105921 
L 163.455737 49.660771 
L 170.379979 48.990331 
L 174.179602 48.990331 
L 176.750788 48.765041 
L 180.149574 48.765041 
L 190.011174 48.314461 
L 198.181296 48.314461 
L 200.674392 48.089171 
L 297.822144 48.198439 
L 300.334007 48.220742 
L 300.334007 48.220742 
" clip-path="url(#p47fd378bc8)" style="fill: none; stroke: #468c82; stroke-width: 1.5; stroke-linecap: square"/>
   </g>
   <g id="line2d_83"/>
   <g id="patch_7">
    <path d="M 39.092704 112.241339 
L 39.092704 7.2 
" style="fill: none; stroke: #000000; stroke-width: 0.8; stroke-linejoin: miter; stroke-linecap: square"/>
   </g>
   <g id="patch_8">
    <path d="M 250.539556 112.241339 
L 250.539556 7.2 
" style="fill: none; stroke: #000000; stroke-width: 0.8; stroke-linejoin: miter; stroke-linecap: square"/>
   </g>
   <g id="patch_9">
    <path d="M 39.092704 112.241339 
L 250.539556 112.241339 
" style="fill: none; stroke: #000000; stroke-width: 0.8; stroke-linejoin: miter; stroke-linecap: square"/>
   </g>
   <g id="patch_10">
    <path d="M 39.092704 7.2 
L 250.539556 7.2 
" style="fill: none; stroke: #000000; stroke-width: 0.8; stroke-linejoin: miter; stroke-linecap: square"/>
   </g>
   <g id="text_19">
    <!-- 0.5 $M_\odot$ onto 1.115 $M_\odot$ -->
    <g transform="translate(56.008452 19.259851) scale(0.1 -0.1)">
     <defs>
      <path id="CMR17-2e" d="M 1062 262 
C 1062 422 934 524 800 524 
C 672 524 538 422 538 262 
C 538 102 666 0 800 0 
C 928 0 1062 102 1062 262 
z
" transform="scale(0.015625)"/>
     </defs>
     <use xlink:href="#CMR17-30" transform="scale(0.996264)"/>
     <use xlink:href="#CMR17-2e" transform="translate(45.690477 0) scale(0.996264)"/>
     <use xlink:href="#CMR17-35" transform="translate(70.561536 0) scale(0.996264)"/>
     <use xlink:href="#CMMI12-4d" transform="translate(146.327979 0) scale(0.996264)"/>
     <use xlink:href="#CMSY10-c" transform="translate(240.701404 -14.943915) scale(0.697382)"/>
     <use xlink:href="#CMR17-6f" transform="translate(325.516496 0) scale(0.996264)"/>
     <use xlink:href="#CMR17-6e" transform="translate(371.206973 0) scale(0.996264)"/>
     <use xlink:href="#CMR17-74" transform="translate(419.499889 0) scale(0.996264)"/>
     <use xlink:href="#CMR17-6f" transform="translate(454.780657 0) scale(0.996264)"/>
     <use xlink:href="#CMR17-31" transform="translate(530.5471 0) scale(0.996264)"/>
     <use xlink:href="#CMR17-2e" transform="translate(576.237577 0) scale(0.996264)"/>
     <use xlink:href="#CMR17-31" transform="translate(601.108636 0) scale(0.996264)"/>
     <use xlink:href="#CMR17-31" transform="translate(646.799113 0) scale(0.996264)"/>
     <use xlink:href="#CMR17-35" transform="translate(692.48959 0) scale(0.996264)"/>
     <use xlink:href="#CMMI12-4d" transform="translate(768.256033 0) scale(0.996264)"/>
     <use xlink:href="#CMSY10-c" transform="translate(862.629458 -14.943915) scale(0.697382)"/>
    </g>
   </g>
   <g id="legend_1">
    <g id="line2d_84">
     <path d="M 176.994501 83.866983 
L 186.994501 83.866983 
L 196.994501 83.866983 
" style="fill: none; stroke: #468c82; stroke-width: 1.5; stroke-linecap: square"/>
    </g>
    <g id="text_20">
     <!-- $\dot{M}_{\mathrm{transfer}}$ -->
     <g transform="translate(204.994501 87.366983) scale(0.1 -0.1)">
      <use xlink:href="#CMR17-5f" transform="translate(48.083663 25.189733) scale(0.996264)"/>
      <use xlink:href="#CMMI12-4d" transform="scale(0.996264)"/>
      <use xlink:href="#CMR17-74" transform="translate(94.373425 -14.943915) scale(0.697382)"/>
      <use xlink:href="#CMR17-72" transform="translate(119.069846 -14.943915) scale(0.697382)"/>
      <use xlink:href="#CMR17-61" transform="translate(143.766266 -14.943915) scale(0.697382)"/>
      <use xlink:href="#CMR17-6e" transform="translate(175.749448 -14.943915) scale(0.697382)"/>
      <use xlink:href="#CMR17-73" transform="translate(211.376056 -14.943915) scale(0.697382)"/>
      <use xlink:href="#CMR17-66" transform="translate(236.436879 -14.943915) scale(0.697382)"/>
      <use xlink:href="#CMR17-65" transform="translate(255.668243 -14.943915) scale(0.697382)"/>
      <use xlink:href="#CMR17-72" transform="translate(284.008075 -14.943915) scale(0.697382)"/>
     </g>
    </g>
    <g id="line2d_85">
     <path d="M 176.994501 97.804161 
L 186.994501 97.804161 
L 196.994501 97.804161 
" style="fill: none; stroke-dasharray: 5.55,2.4; stroke-dashoffset: 0; stroke: #b4646e; stroke-width: 1.5"/>
    </g>
    <g id="text_21">
     <!-- $P_{\mathrm{orb}}$ -->
     <g transform="translate(204.994501 101.304161) scale(0.1 -0.1)">
      <defs>
       <path id="CMMI12-50" d="M 1894 2022 
L 2970 2022 
C 3853 2022 4736 2673 4736 3400 
C 4736 3898 4314 4352 3507 4352 
L 1530 4352 
C 1408 4352 1350 4352 1350 4230 
C 1350 4166 1408 4166 1504 4166 
C 1894 4166 1894 4115 1894 4045 
C 1894 4032 1894 3994 1869 3898 
L 1005 471 
C 947 249 934 185 486 185 
C 365 185 301 185 301 70 
C 301 0 358 0 397 0 
C 518 0 646 12 768 12 
L 1517 12 
C 1638 12 1773 0 1894 0 
C 1946 0 2016 0 2016 121 
C 2016 185 1958 185 1862 185 
C 1478 185 1472 230 1472 293 
C 1472 325 1478 369 1485 401 
L 1894 2022 
z
M 2355 3917 
C 2413 4153 2438 4166 2688 4166 
L 3322 4166 
C 3802 4166 4198 4013 4198 3534 
C 4198 3369 4115 2826 3821 2533 
C 3712 2418 3405 2176 2822 2176 
L 1920 2176 
L 2355 3917 
z
" transform="scale(0.015625)"/>
      </defs>
      <use xlink:href="#CMMI12-50" transform="scale(0.996264)"/>
      <use xlink:href="#CMR17-6f" transform="translate(62.877232 -14.943915) scale(0.697382)"/>
      <use xlink:href="#CMR17-72" transform="translate(94.860414 -14.943915) scale(0.697382)"/>
      <use xlink:href="#CMR17-62" transform="translate(119.556835 -14.943915) scale(0.697382)"/>
     </g>
    </g>
   </g>
  </g>
 </g>
 <defs>
  <clipPath id="p47fd378bc8">
   <rect x="39.092704" y="7.2" width="211.446852" height="105.041339"/>
  </clipPath>
 </defs>
</svg>
